<svg xmlns="http://www.w3.org/2000/svg" width="24" height="24" viewBox="0 0 24 24">
    <g fill="none">
        <path fill="#FFF" d="M20.512 1.872C17.5.608 14.264-.03 11 0c-3.264-.03-6.5.607-9.513 1.87C.588 2.262.004 3.15 0 4.132v7.304c.077 5.355 3.458 10.1 8.482 11.906l1.068.4c.937.345 1.964.345 2.9 0l1.067-.4c5.025-1.805 8.406-6.55 8.483-11.906V4.132c-.004-.983-.589-1.87-1.488-2.26zm-4.1 6.251l-5.18 7.185c-.185.256-.471.417-.783.442h-.086c-.285 0-.558-.115-.759-.32l-3.928-3.993c-.407-.428-.4-1.109.013-1.53.414-.42 1.084-.426 1.504-.012l2.868 2.917c.044.045.106.068.168.063.063-.005.12-.037.157-.089l4.292-5.953c.224-.32.601-.493.986-.452.385.04.718.29.872.65.154.361.105.778-.128 1.092h.004z" transform="translate(1)"/>
        <path fill="#F8F9FA" d="M11 .001c3.264-.03 6.5.607 9.512 1.87.9.39 1.484 1.278 1.488 2.26v7.304c-.077 5.356-3.458 10.1-8.483 11.906l-1.066.4c-.464.171-.965.257-1.451.259v-8.458c.088-.065.166-.144.232-.234l5.18-7.185c.23-.314.278-.73.124-1.092-.154-.36-.487-.61-.872-.65-.385-.041-.762.132-.986.452L11 11.935z" transform="translate(1)"/>
    </g>
</svg>
