<svg xmlns="http://www.w3.org/2000/svg" width="48" height="16" viewBox="0 0 48 16">
    <path fill="#FFF" d="M6.091 3.907l2.523 4.92 2.526-4.919c.291-.568 1.002-.8 1.585-.515.283.137.493.374.593.666.1.292.077.604-.064.88l-5.35 10.424c-.201.393-.606.637-1.057.637-.184 0-.362-.041-.528-.122-.282-.137-.493-.374-.592-.666-.1-.292-.078-.604.064-.88l1.502-2.93-3.316-6.465c-.291-.568-.054-1.261.528-1.545.583-.284 1.295-.053 1.586.515zm16.126-.637c.44 0 .836.259 1.005.654.168.396.075.852-.236 1.155l-5.402 5.265h4.633c.6 0 1.087.474 1.087 1.059s-.486 1.06-1.087 1.06H14.96c-.44 0-.836-.259-1.004-.655-.168-.396-.075-.851.236-1.154l5.402-5.265h-4.09c-.6 0-1.087-.474-1.087-1.06 0-.584.486-1.059 1.086-1.059zm-21.035 0c.651 0 1.182.517 1.182 1.152v6.888c0 .635-.53 1.152-1.182 1.152C.53 12.462 0 11.945 0 11.31V4.422C0 3.787.53 3.27 1.182 3.27zm24.84 0c.65 0 1.181.517 1.181 1.152v6.888c0 .635-.53 1.152-1.182 1.152-.651 0-1.182-.517-1.182-1.152V4.422c0-.635.53-1.152 1.182-1.152zm16.863 0c2.6 0 4.715 2.062 4.715 4.596 0 2.534-2.115 4.596-4.715 4.596-2.6 0-4.716-2.062-4.716-4.596 0-2.534 2.116-4.596 4.716-4.596zm-9.432 0c1.26 0 2.443.478 3.334 1.346.424.413.425 1.084 0 1.498-.424.414-1.112.414-1.537 0-.48-.468-1.118-.725-1.797-.725-1.401 0-2.541 1.111-2.541 2.477 0 1.366 1.14 2.478 2.541 2.478.68 0 1.318-.258 1.798-.726.424-.413 1.112-.413 1.537 0 .424.414.424 1.084 0 1.498-.89.868-2.075 1.346-3.335 1.346-2.6 0-4.715-2.062-4.715-4.596 0-2.534 2.115-4.596 4.715-4.596zm9.432 2.119c-1.402 0-2.542 1.111-2.542 2.477 0 1.366 1.14 2.478 2.542 2.478 1.401 0 2.541-1.112 2.541-2.478s-1.14-2.477-2.541-2.477zM1.182 0c.651 0 1.182.517 1.182 1.152 0 .635-.53 1.152-1.182 1.152C.53 2.304 0 1.787 0 1.152 0 .517.53 0 1.182 0zm24.84 0c.65 0 1.181.517 1.181 1.152 0 .635-.53 1.152-1.182 1.152-.651 0-1.182-.517-1.182-1.152C24.84.517 25.37 0 26.021 0z"/>
</svg>
