<svg xmlns="http://www.w3.org/2000/svg" width="16" height="16" viewBox="0 0 16 16">
    <path fill="#868E96" d="M12.934 6.333h-.493V4.5C12.44 2.015 10.453 0 8 0S3.56 2.015 3.56 4.5v1.833h-.494c-.727 0-1.316.597-1.316 1.334v7c0 .736.59 1.333 1.316 1.333h9.868c.727 0 1.316-.597 1.316-1.333v-7c0-.737-.59-1.334-1.316-1.334zm-6.25 4c-.003-.647.454-1.204 1.084-1.318.629-.114 1.248.246 1.468.854.22.609-.024 1.29-.578 1.613V13c0 .368-.295.667-.658.667-.363 0-.658-.299-.658-.667v-1.518c-.406-.236-.656-.674-.658-1.149zM5.204 4.5c0-1.565 1.252-2.833 2.796-2.833 1.544 0 2.796 1.268 2.796 2.833V6c0 .184-.147.333-.329.333H5.533c-.182 0-.33-.149-.33-.333V4.5z"/>
</svg>
