<svg xmlns="http://www.w3.org/2000/svg" width="16" height="16" viewBox="0 0 16 16">
    <g fill="#868E96">
        <path d="M14.333 9.25H1.667c-.1 0-.195.045-.259.122-.063.078-.088.18-.068.278l.854 4.267c.256.672.936 1.084 1.65 1h8.312c.714.084 1.394-.328 1.65-1l.854-4.267c.02-.098-.005-.2-.068-.278-.064-.077-.159-.122-.259-.122zm-9.166 3.667V11.25c0-.276.224-.5.5-.5s.5.224.5.5v1.667c0 .276-.224.5-.5.5s-.5-.224-.5-.5zm5.666 0c0 .276-.224.5-.5.5s-.5-.224-.5-.5V11.25c0-.276.224-.5.5-.5s.5.224.5.5v1.667zM16 6.917c0-.737-.597-1.334-1.333-1.334h-1.239c-.066 0-.126-.038-.153-.098L11.095.579c-.194-.41-.678-.589-1.092-.405-.413.184-.605.663-.432 1.081l1.82 4.094c.023.052.018.112-.012.159-.031.047-.084.076-.14.075H4.654c-.057 0-.11-.029-.14-.077-.031-.048-.035-.108-.01-.16L6.42 1.272c.196-.416.017-.913-.4-1.109-.416-.196-.912-.017-1.108.399L2.595 5.488c-.028.058-.086.096-.151.095h-1.11C.596 5.583 0 6.18 0 6.917 0 7.653.597 8.25 1.333 8.25h13.334c.736 0 1.333-.597 1.333-1.333z" transform="translate(0 .5)"/>
    </g>
</svg>
