<svg xmlns="http://www.w3.org/2000/svg" width="16" height="16" viewBox="0 0 16 16">
    <path fill="#868E96" d="M16 9.533c0-1.298-.801-2.455-2-2.886v-.519C14 2.744 11.314 0 8.001 0 4.688 0 2.002 2.744 2.002 6.128v.519C.802 7.079 0 8.237 0 9.537c0 1.299.802 2.457 2.002 2.89.307.11.647.062.912-.13.266-.193.423-.505.421-.838V6.13c0-1.704.89-3.277 2.333-4.129 1.444-.851 3.223-.851 4.666 0 1.444.852 2.333 2.425 2.333 4.128v5.331c.003.287.124.559.333.75v.386c0 1.004-.86 1.362-1.666 1.362H10.15c-.302-.534-.917-.794-1.5-.634-.582.16-.988.699-.988 1.315s.406 1.156.988 1.315c.583.16 1.198-.1 1.5-.634h1.185c1.766 0 3-1.12 3-2.724v-.325c1.018-.516 1.663-1.576 1.666-2.737z"/>
</svg>
